<svg id="visual" viewBox="0 0 960 540" width="960" height="540" xmlns="http://www.w3.org/2000/svg" xmlns:xlink="http://www.w3.org/1999/xlink" version="1.1"><rect x="0" y="0" width="960" height="540" fill="#001728"></rect><path d="M0 455L12.3 456C24.7 457 49.3 459 74 455.7C98.7 452.3 123.3 443.7 148 437.2C172.7 430.7 197.3 426.3 221.8 431C246.3 435.7 270.7 449.3 295.2 456.2C319.7 463 344.3 463 369 462.8C393.7 462.7 418.3 462.3 443 461C467.7 459.7 492.3 457.3 517 451.8C541.7 446.3 566.3 437.7 591 441.2C615.7 444.7 640.3 460.3 664.8 462.7C689.3 465 713.7 454 738.2 447.5C762.7 441 787.3 439 812 443.3C836.7 447.7 861.3 458.3 886 462.7C910.7 467 935.3 465 947.7 464L960 463L960 541L947.7 541C935.3 541 910.7 541 886 541C861.3 541 836.7 541 812 541C787.3 541 762.7 541 738.2 541C713.7 541 689.3 541 664.8 541C640.3 541 615.7 541 591 541C566.3 541 541.7 541 517 541C492.3 541 467.7 541 443 541C418.3 541 393.7 541 369 541C344.3 541 319.7 541 295.2 541C270.7 541 246.3 541 221.8 541C197.3 541 172.7 541 148 541C123.3 541 98.7 541 74 541C49.3 541 24.7 541 12.3 541L0 541Z" fill="#c62368"></path><path d="M0 489L12.3 488.8C24.7 488.7 49.3 488.3 74 483.5C98.7 478.7 123.3 469.3 148 465C172.7 460.7 197.3 461.3 221.8 460.3C246.3 459.3 270.7 456.7 295.2 462.2C319.7 467.7 344.3 481.3 369 483.5C393.7 485.7 418.3 476.3 443 471.2C467.7 466 492.3 465 517 469.5C541.7 474 566.3 484 591 486.8C615.7 489.7 640.3 485.3 664.8 483.8C689.3 482.3 713.7 483.7 738.2 485.2C762.7 486.7 787.3 488.3 812 482.8C836.7 477.3 861.3 464.7 886 463.5C910.7 462.3 935.3 472.7 947.7 477.8L960 483L960 541L947.7 541C935.3 541 910.7 541 886 541C861.3 541 836.7 541 812 541C787.3 541 762.7 541 738.2 541C713.7 541 689.3 541 664.8 541C640.3 541 615.7 541 591 541C566.3 541 541.7 541 517 541C492.3 541 467.7 541 443 541C418.3 541 393.7 541 369 541C344.3 541 319.7 541 295.2 541C270.7 541 246.3 541 221.8 541C197.3 541 172.7 541 148 541C123.3 541 98.7 541 74 541C49.3 541 24.7 541 12.3 541L0 541Z" fill="#e24768"></path><path d="M0 492L12.3 495.5C24.7 499 49.3 506 74 508.2C98.7 510.3 123.3 507.7 148 506.5C172.7 505.3 197.3 505.7 221.8 503.5C246.3 501.3 270.7 496.7 295.2 493.8C319.7 491 344.3 490 369 493.5C393.7 497 418.3 505 443 506.2C467.7 507.3 492.3 501.7 517 497.7C541.7 493.7 566.3 491.3 591 492.2C615.7 493 640.3 497 664.8 498.8C689.3 500.7 713.7 500.3 738.2 498.2C762.7 496 787.3 492 812 493.7C836.7 495.3 861.3 502.7 886 501.8C910.7 501 935.3 492 947.7 487.5L960 483L960 541L947.7 541C935.3 541 910.7 541 886 541C861.3 541 836.7 541 812 541C787.3 541 762.7 541 738.2 541C713.7 541 689.3 541 664.8 541C640.3 541 615.7 541 591 541C566.3 541 541.7 541 517 541C492.3 541 467.7 541 443 541C418.3 541 393.7 541 369 541C344.3 541 319.7 541 295.2 541C270.7 541 246.3 541 221.8 541C197.3 541 172.7 541 148 541C123.3 541 98.7 541 74 541C49.3 541 24.7 541 12.3 541L0 541Z" fill="#fa6969"></path></svg>