<svg id="visual" viewBox="0 0 1920 1080" width="1920" height="1080" xmlns="http://www.w3.org/2000/svg" xmlns:xlink="http://www.w3.org/1999/xlink" version="1.1"><rect x="0" y="0" width="1920" height="1080" fill="#effaff"></rect><path d="M0 948L16 954.7C32 961.3 64 974.7 96 986.5C128 998.3 160 1008.7 192 1008.3C224 1008 256 997 288 980.2C320 963.3 352 940.7 384 942.3C416 944 448 970 480 979.5C512 989 544 982 576 973.5C608 965 640 955 672 948.8C704 942.7 736 940.3 768 949C800 957.7 832 977.3 864 976.3C896 975.3 928 953.7 960 956.8C992 960 1024 988 1056 993.2C1088 998.3 1120 980.7 1152 970C1184 959.3 1216 955.7 1248 955C1280 954.3 1312 956.7 1344 955C1376 953.3 1408 947.7 1440 948.8C1472 950 1504 958 1536 958.8C1568 959.7 1600 953.3 1632 958.3C1664 963.3 1696 979.7 1728 982.5C1760 985.3 1792 974.7 1824 966C1856 957.3 1888 950.7 1904 947.3L1920 944L1920 1081L1904 1081C1888 1081 1856 1081 1824 1081C1792 1081 1760 1081 1728 1081C1696 1081 1664 1081 1632 1081C1600 1081 1568 1081 1536 1081C1504 1081 1472 1081 1440 1081C1408 1081 1376 1081 1344 1081C1312 1081 1280 1081 1248 1081C1216 1081 1184 1081 1152 1081C1120 1081 1088 1081 1056 1081C1024 1081 992 1081 960 1081C928 1081 896 1081 864 1081C832 1081 800 1081 768 1081C736 1081 704 1081 672 1081C640 1081 608 1081 576 1081C544 1081 512 1081 480 1081C448 1081 416 1081 384 1081C352 1081 320 1081 288 1081C256 1081 224 1081 192 1081C160 1081 128 1081 96 1081C64 1081 32 1081 16 1081L0 1081Z" fill="#143567" stroke-linecap="round" stroke-linejoin="miter"></path></svg>